<svg xmlns="http://www.w3.org/2000/svg" xmlns:xlink="http://www.w3.org/1999/xlink" width="187" height="37" fill="none" xmlns:v="https://vecta.io/nano"><path d="M44.22 16.703a9.98 9.98 0 0 1-9.976 9.976 9.98 9.98 0 0 1-9.976-9.976 9.98 9.98 0 0 1 9.976-9.976 9.98 9.98 0 0 1 9.976 9.976zm-16.59 0c0 3.653 2.961 6.614 6.614 6.614s6.614-2.961 6.614-6.614-2.961-6.614-6.614-6.614-6.614 2.961-6.614 6.614z" fill="url(#A)"/><path d="M34.244 6.727c1.31 0 2.607.258 3.818.759s2.31 1.236 3.236 2.163 1.661 2.026 2.163 3.237.759 2.508.759 3.818-.258 2.607-.759 3.818-1.236 2.31-2.163 3.236-2.026 1.661-3.236 2.163-2.508.759-3.818.759v-3.362a6.61 6.61 0 0 0 4.677-1.937c.614-.614 1.101-1.343 1.434-2.146s.503-1.662.503-2.531-.171-1.729-.503-2.531a6.61 6.61 0 0 0-1.434-2.146c-.614-.614-1.343-1.101-2.146-1.434s-1.662-.503-2.531-.503V6.727z" fill="url(#B)"/><circle cx="34.244" cy="8.414" r="1.672" fill="#59eeb8"/><g fill="#1cbf84"><path d="M9.298 6.437c1.526 0 2.873.31 4.041.93 1.192.596 2.122 1.347 2.789 2.253V6.759h4.112v20.025c0 1.812-.381 3.421-1.144 4.828-.763 1.43-1.871 2.551-3.326 3.361-1.43.811-3.147 1.216-5.149 1.216-2.67 0-4.887-.632-6.651-1.895a6.87 6.87 0 0 1-3.004-5.078h4.041c.31 1.025.966 1.848 1.967 2.467 1.025.644 2.241.966 3.647.966 1.645 0 2.968-.501 3.969-1.502 1.025-1.001 1.538-2.456 1.538-4.363v-3.29c-.691.93-1.633 1.717-2.825 2.36-1.168.62-2.503.93-4.005.93-1.716 0-3.29-.429-4.72-1.287-1.407-.882-2.527-2.098-3.361-3.648C.405 20.276 0 18.5 0 16.521s.405-3.731 1.216-5.257c.834-1.526 1.955-2.706 3.361-3.54 1.43-.858 3.004-1.287 4.72-1.287zm6.83 10.156c0-1.359-.286-2.539-.858-3.54-.548-1.001-1.275-1.764-2.181-2.289s-1.883-.787-2.932-.787-2.026.262-2.932.787c-.906.501-1.645 1.252-2.217 2.253-.548.977-.822 2.146-.822 3.505s.274 2.551.822 3.576c.572 1.025 1.311 1.812 2.217 2.36.93.524 1.907.787 2.932.787 1.049 0 2.026-.262 2.932-.787s1.633-1.287 2.181-2.289c.572-1.025.858-2.217.858-3.576zm40.459 10.12c-1.669 0-3.171-.286-4.506-.858-1.335-.596-2.384-1.43-3.147-2.503s-1.144-2.324-1.144-3.755h4.363c.095 1.073.512 1.955 1.252 2.646.763.691 1.824 1.037 3.183 1.037 1.407 0 2.503-.334 3.29-1.001.787-.691 1.18-1.573 1.18-2.646 0-.834-.25-1.514-.751-2.038-.477-.525-1.085-.93-1.824-1.216-.715-.286-1.716-.596-3.004-.93-1.621-.429-2.944-.858-3.969-1.287-1.001-.453-1.859-1.144-2.575-2.074s-1.073-2.169-1.073-3.719c0-1.43.358-2.682 1.073-3.755s1.716-1.895 3.004-2.467 2.777-.858 4.47-.858c2.408 0 4.375.608 5.9 1.824 1.55 1.192 2.408 2.837 2.575 4.935h-4.506c-.072-.906-.501-1.681-1.287-2.324s-1.824-.966-3.111-.966c-1.168 0-2.122.298-2.861.894S52.01 7.104 52.01 8.225c0 .763.227 1.395.68 1.895.477.477 1.073.858 1.788 1.144s1.693.596 2.932.93c1.645.453 2.98.906 4.005 1.359 1.049.453 1.931 1.156 2.646 2.11.739.93 1.109 2.181 1.109 3.755 0 1.264-.346 2.456-1.037 3.576-.667 1.12-1.657 2.026-2.968 2.718-1.287.668-2.813 1.001-4.577 1.001zm21.939.071c-1.859 0-3.54-.417-5.042-1.252a9.27 9.27 0 0 1-3.54-3.576c-.858-1.55-1.287-3.338-1.287-5.364 0-2.003.441-3.779 1.323-5.328s2.086-2.742 3.612-3.576 3.23-1.252 5.114-1.252 3.588.417 5.114 1.252 2.73 2.026 3.612 3.576 1.323 3.326 1.323 5.328-.453 3.779-1.359 5.328a9.5 9.5 0 0 1-3.719 3.612c-1.55.834-3.266 1.252-5.149 1.252zm0-3.54a5.96 5.96 0 0 0 2.932-.751c.93-.501 1.681-1.252 2.253-2.253s.858-2.217.858-3.647-.274-2.634-.823-3.612c-.548-1.001-1.275-1.752-2.181-2.253a5.96 5.96 0 0 0-2.932-.751 5.96 5.96 0 0 0-2.932.751c-.882.501-1.585 1.252-2.11 2.253-.525.977-.787 2.181-.787 3.612 0 2.122.536 3.767 1.609 4.935 1.097 1.144 2.467 1.716 4.112 1.716zM96.86 0v26.462h-4.077V0h4.077zm12.969 22.815l5.579-16.056h4.327l-7.51 19.704h-4.863L99.888 6.759h4.363l5.578 16.056zm31.046-6.687a12.79 12.79 0 0 1-.143 2.003h-15.055c.119 1.573.703 2.837 1.752 3.791s2.337 1.43 3.862 1.43c2.194 0 3.743-.918 4.649-2.753h4.399c-.596 1.812-1.681 3.302-3.255 4.47-1.549 1.144-3.48 1.716-5.793 1.716-1.883 0-3.576-.417-5.078-1.252a9.35 9.35 0 0 1-3.504-3.576c-.834-1.55-1.252-3.338-1.252-5.364s.406-3.802 1.216-5.328c.835-1.55 1.991-2.742 3.469-3.576 1.502-.834 3.218-1.252 5.149-1.252 1.86 0 3.517.405 4.971 1.216a8.56 8.56 0 0 1 3.397 3.433c.811 1.454 1.216 3.135 1.216 5.042zm-4.255-1.287c-.024-1.502-.561-2.706-1.61-3.612s-2.348-1.359-3.897-1.359c-1.407 0-2.611.453-3.612 1.359-1.002.882-1.597 2.086-1.788 3.612h10.907zm19.032-8.037a2.85 2.85 0 0 1 1.353.315 2.23 2.23 0 0 1 .944.933c.233.412.35.91.35 1.493v3.79h-1.318V9.742c0-.575-.143-1.014-.431-1.318-.288-.311-.68-.466-1.178-.466s-.894.155-1.189.466c-.288.303-.432.742-.432 1.318v3.591h-1.317V9.742c0-.575-.144-1.014-.432-1.318-.287-.311-.68-.466-1.177-.466s-.894.155-1.19.466c-.287.303-.431.742-.431 1.318v3.591h-1.329V6.909h1.329v.735a2.2 2.2 0 0 1 .828-.618 2.62 2.62 0 0 1 1.072-.222 2.86 2.86 0 0 1 1.376.326 2.23 2.23 0 0 1 .933.944c.195-.389.498-.696.91-.921.412-.233.855-.35 1.329-.35z"/><use xlink:href="#C"/><path d="M166.307 6.804c.505 0 .956.105 1.352.315.404.21.719.521.945.933s.338.91.338 1.493v3.79h-1.318V9.742c0-.575-.144-1.014-.431-1.318-.288-.311-.68-.466-1.178-.466s-.894.155-1.189.466c-.288.303-.432.742-.432 1.318v3.591h-1.329V6.909h1.329v.735c.218-.264.494-.47.828-.618a2.71 2.71 0 0 1 1.085-.222z"/><use xlink:href="#C" x="10.647"/><rect x="147" y="16.667" width="40" height="19.333" rx="4"/></g><path d="M158.012 26.135c.474.101.855.338 1.143.711a1.98 1.98 0 0 1 .431 1.259c0 .684-.241 1.228-.723 1.632-.474.396-1.139.595-1.994.595h-3.813v-8.186h3.685c.832 0 1.481.19 1.947.571.474.381.712.898.712 1.551 0 .482-.129.882-.385 1.201-.249.319-.583.54-1.003.665zm-2.962-.676h1.306c.327 0 .575-.07.746-.21.179-.148.269-.361.269-.641s-.09-.494-.269-.641c-.171-.148-.419-.222-.746-.222h-1.306v1.714zm1.469 3.265c.335 0 .591-.074.77-.222.187-.155.28-.377.28-.665s-.097-.513-.292-.676c-.186-.163-.447-.245-.781-.245h-1.446v1.807h1.469zm6.218-4.979v1.656h2.67v1.539h-2.67v1.796h3.02v1.598h-5.014v-8.186h5.014v1.597h-3.02zm10.203-1.597v1.597h-2.169v6.588h-1.994v-6.588h-2.169v-1.597h6.332zm5.096 6.739h-3.055l-.49 1.446h-2.087l2.962-8.186h2.309l2.961 8.186h-2.11l-.49-1.446zm-.513-1.539l-1.015-2.997-1.002 2.997h2.017z" fill="#fff"/><defs><linearGradient id="A" x1="34.244" y1="26.679" x2="34.244" y2="7.163" gradientUnits="userSpaceOnUse"><stop stop-color="#35d99e"/><stop offset="1" stop-color="#59eeb8"/></linearGradient><linearGradient id="B" x1="34.244" y1="12.378" x2="34.244" y2="22.973" gradientUnits="userSpaceOnUse"><stop stop-color="#18b07d"/><stop offset="1" stop-color="#1bbe83" stop-opacity="0"/></linearGradient><path id="C" d="M160.667 6.057c-.241 0-.443-.082-.607-.245s-.244-.365-.244-.606.081-.443.244-.606.366-.245.607-.245c.233 0 .431.082.594.245a.82.82 0 0 1 .245.606.82.82 0 0 1-.245.606c-.163.163-.361.245-.594.245zm.653.851v6.425h-1.33V6.909h1.33z"/></defs></svg>