<svg xmlns="http://www.w3.org/2000/svg" xmlns:xlink="http://www.w3.org/1999/xlink" width="77" height="32" fill="none" xmlns:v="https://vecta.io/nano"><path d="M32.947 16c0 8.837-7.163 16-16 16s-16-7.163-16-16 7.163-16 16-16 16 7.163 16 16zM6.339 16a10.61 10.61 0 0 0 10.607 10.607A10.61 10.61 0 0 0 27.554 16 10.61 10.61 0 0 0 16.947 5.393 10.61 10.61 0 0 0 6.339 16z" fill="url(#A)"/><path d="M16.947 0a16 16 0 0 1 11.314 4.686A16 16 0 0 1 32.947 16a16 16 0 0 1-4.686 11.314A16 16 0 0 1 16.947 32v-5.393a10.61 10.61 0 0 0 7.501-3.107A10.61 10.61 0 0 0 27.554 16a10.61 10.61 0 0 0-3.107-7.501A10.61 10.61 0 0 0 21.006 6.2c-1.287-.533-2.666-.807-4.059-.807V0z" fill="url(#B)"/><circle cx="16.947" cy="2.706" r="2.681" fill="#59eeb8"/><g fill="#1cbf84"><path d="M45.652 2.803c.505 0 .956.105 1.353.315a2.23 2.23 0 0 1 .944.933c.233.412.35.91.35 1.493v3.79h-1.318V5.742c0-.575-.144-1.014-.431-1.318-.288-.311-.68-.466-1.178-.466s-.894.155-1.189.466c-.288.303-.431.742-.431 1.318v3.591h-1.318V5.742c0-.575-.144-1.014-.431-1.318-.288-.311-.68-.466-1.178-.466s-.894.155-1.189.466c-.288.303-.431.742-.431 1.318v3.591h-1.329V2.908h1.329v.735a2.21 2.21 0 0 1 .828-.618c.334-.148.692-.222 1.073-.222.513 0 .972.109 1.376.326a2.23 2.23 0 0 1 .933.945c.194-.389.498-.696.91-.921.412-.233.855-.35 1.329-.35z"/><use xlink:href="#C"/><path d="M56.307 2.803c.505 0 .956.105 1.353.315a2.23 2.23 0 0 1 .944.933c.225.412.338.91.338 1.493v3.79h-1.318V5.742c0-.575-.144-1.014-.431-1.318-.288-.311-.68-.466-1.178-.466s-.894.155-1.189.466c-.288.303-.431.742-.431 1.318v3.591h-1.329V2.908h1.329v.735a2.21 2.21 0 0 1 .828-.618c.342-.148.704-.222 1.084-.222z"/><use xlink:href="#C" x="10.647"/><rect x="37" y="12.667" width="40" height="19.333" rx="4"/></g><path d="M48.012 22.136c.474.101.855.338 1.143.711a1.98 1.98 0 0 1 .431 1.259c0 .684-.241 1.228-.723 1.633-.474.396-1.139.595-1.994.595h-3.813v-8.186h3.685c.832 0 1.481.191 1.947.571.474.381.711.898.711 1.551 0 .482-.128.882-.385 1.201-.249.319-.583.54-1.003.665zm-2.962-.676h1.306c.326 0 .575-.07.746-.21.179-.148.268-.362.268-.641s-.089-.494-.268-.641c-.171-.148-.42-.221-.746-.221H45.05v1.714zm1.469 3.265c.334 0 .591-.074.77-.221.187-.155.28-.377.28-.665s-.097-.513-.291-.676c-.187-.163-.447-.245-.781-.245h-1.446v1.807h1.469zm6.218-4.98v1.656h2.67v1.539h-2.67v1.796h3.02v1.598h-5.014v-8.186h5.014v1.598h-3.02zm10.203-1.597v1.598h-2.169v6.588h-1.994v-6.588h-2.169v-1.598h6.332zm5.096 6.74h-3.055l-.49 1.446h-2.087l2.962-8.186h2.309l2.962 8.186h-2.111l-.49-1.446zm-.513-1.539l-1.014-2.997-1.003 2.997h2.017z" fill="#fff"/><defs><linearGradient id="A" x1="16.947" y1="32" x2="16.947" y2=".699" gradientUnits="userSpaceOnUse"><stop stop-color="#35d99e"/><stop offset="1" stop-color="#59eeb8"/></linearGradient><linearGradient id="B" x1="16.947" y1="9.064" x2="16.947" y2="26.055" gradientUnits="userSpaceOnUse"><stop stop-color="#18b07d"/><stop offset="1" stop-color="#1bbe83" stop-opacity="0"/></linearGradient><path id="C" d="M50.667 2.057c-.241 0-.443-.082-.606-.245s-.245-.365-.245-.606.082-.443.245-.606.365-.245.606-.245a.81.81 0 0 1 .595.245c.163.163.245.365.245.606s-.082.443-.245.606a.81.81 0 0 1-.595.245zm.653.851v6.425h-1.329V2.908h1.329z"/></defs></svg>