<svg xmlns="http://www.w3.org/2000/svg" width="33" height="32" fill="none" xmlns:v="https://vecta.io/nano"><path d="M32.947 16c0 8.837-7.163 16-16 16s-16-7.163-16-16 7.163-16 16-16 16 7.163 16 16zM6.339 16a10.61 10.61 0 0 0 10.607 10.607A10.61 10.61 0 0 0 27.554 16 10.61 10.61 0 0 0 16.947 5.393 10.61 10.61 0 0 0 6.339 16z" fill="url(#A)"/><path d="M16.947 0a16 16 0 0 1 11.314 4.686A16 16 0 0 1 32.947 16a16 16 0 0 1-4.686 11.314A16 16 0 0 1 16.947 32v-5.393a10.61 10.61 0 0 0 7.501-3.107A10.61 10.61 0 0 0 27.554 16a10.61 10.61 0 0 0-3.107-7.501A10.61 10.61 0 0 0 21.006 6.2c-1.287-.533-2.666-.807-4.059-.807V0z" fill="url(#B)"/><circle cx="16.947" cy="2.706" r="2.681" fill="#59eeb8"/><defs><linearGradient id="A" x1="16.947" y1="32" x2="16.947" y2=".699" gradientUnits="userSpaceOnUse"><stop stop-color="#35d99e"/><stop offset="1" stop-color="#59eeb8"/></linearGradient><linearGradient id="B" x1="16.947" y1="9.064" x2="16.947" y2="26.055" gradientUnits="userSpaceOnUse"><stop stop-color="#18b07d"/><stop offset="1" stop-color="#1bbe83" stop-opacity="0"/></linearGradient></defs></svg>